<svg width="65" height="64" viewBox="0 0 65 64" fill="none" xmlns="http://www.w3.org/2000/svg">
<path d="M32.6562 0C50.3294 0 64.6562 14.3269 64.6562 32C64.6562 49.6731 50.3294 64 32.6562 64C14.9831 64 0.65625 49.6731 0.65625 32C0.65625 14.3269 14.9831 0 32.6562 0Z" fill="#0055A6"/>
<path d="M32.6562 0C50.3294 0 64.6562 14.3269 64.6562 32C64.6562 49.6731 50.3294 64 32.6562 64C14.9831 64 0.65625 49.6731 0.65625 32C0.65625 14.3269 14.9831 0 32.6562 0Z" stroke="#E5E7EB"/>
<path d="M42.6562 46H22.6562V18H42.6562V46Z" stroke="#E5E7EB"/>
<g clip-path="url(#clip0_283_309)">
<path d="M29.0977 22.4608C28.7969 21.7343 28.0039 21.3476 27.2461 21.5546L23.8086 22.4921C23.1289 22.6796 22.6562 23.2968 22.6562 23.9999C22.6562 33.664 30.4922 41.4999 40.1562 41.4999C40.8594 41.4999 41.4766 41.0272 41.6641 40.3476L42.6016 36.9101C42.8086 36.1522 42.4219 35.3593 41.6953 35.0585L37.9453 33.496C37.3086 33.2304 36.5703 33.414 36.1367 33.9491L34.5586 35.8749C31.8086 34.5741 29.582 32.3476 28.2812 29.5976L30.207 28.0233C30.7422 27.5858 30.9258 26.8515 30.6602 26.2147L29.0977 22.4647V22.4608Z" fill="white"/>
</g>
<defs>
<clipPath id="clip0_283_309">
<path d="M22.6562 21.5H42.6562V41.5H22.6562V21.5Z" fill="white"/>
</clipPath>
</defs>
</svg>
