<svg width="38" height="37" viewBox="0 0 38 37" fill="none" xmlns="http://www.w3.org/2000/svg">
<g clip-path="url(#clip0_316_117)">
<mask id="mask0_316_117" style="mask-type:luminance" maskUnits="userSpaceOnUse" x="0" y="0" width="37" height="37">
<path d="M0.765625 0.5H36.7656V36.5H0.765625V0.5Z" fill="white"/>
</mask>
<g mask="url(#mask0_316_117)">
<path d="M15.6005 1.01322C15.1786 0.570256 14.5458 0.401506 13.9552 0.556193C13.3646 0.710881 12.9075 1.18197 12.7528 1.7726L11.6419 6.16713L7.28256 4.93666C6.69193 4.76791 6.05912 4.93666 5.63021 5.36557C5.20131 5.79447 5.03256 6.42729 5.20131 7.01791L6.43178 11.3773L2.03724 12.4953C1.44662 12.6429 0.982561 13.107 0.820842 13.6976C0.659123 14.2882 0.834905 14.914 1.27787 15.3359L4.52631 18.4999L1.27787 21.664C0.834905 22.0859 0.666155 22.7187 0.820842 23.3093C0.97553 23.8999 1.44662 24.357 2.03724 24.5117L6.43178 25.6226L5.20131 29.982C5.03256 30.5726 5.20131 31.2054 5.63021 31.6343C6.05912 32.0632 6.69193 32.232 7.28256 32.0632L11.6419 30.8328L12.7528 35.2273C12.9005 35.8179 13.3646 36.282 13.9552 36.4437C14.5458 36.6054 15.1716 36.4296 15.6005 35.9937L18.7646 32.7453L21.9286 35.9937C22.3575 36.4296 22.9833 36.6054 23.5739 36.4437C24.1646 36.282 24.6216 35.8179 24.7763 35.2273L25.8872 30.8328L30.2466 32.0632C30.8372 32.232 31.47 32.0632 31.8989 31.6343C32.3278 31.2054 32.4966 30.5726 32.3278 29.982L31.0974 25.6226L35.4919 24.5117C36.0825 24.364 36.5466 23.8999 36.7083 23.3093C36.87 22.7187 36.6943 22.0929 36.2583 21.664L33.0099 18.4999L36.2583 15.3359C36.6943 14.907 36.87 14.2812 36.7083 13.6906C36.5466 13.0999 36.0825 12.6429 35.4919 12.4882L31.0974 11.3773L32.3278 7.01791C32.4966 6.42729 32.3278 5.79447 31.8989 5.36557C31.47 4.93666 30.8372 4.76791 30.2466 4.93666L25.8872 6.16713L24.7693 1.7726C24.6216 1.18197 24.1575 0.717912 23.5669 0.556193C22.9763 0.394474 22.3505 0.570256 21.9286 1.01322L18.7646 4.26166L15.6005 1.01322Z" fill="#FACC15"/>
</g>
</g>
<defs>
<clipPath id="clip0_316_117">
<rect width="37" height="37" fill="white" transform="translate(0.5)"/>
</clipPath>
</defs>
</svg>
