<svg width="37" height="37" viewBox="0 0 37 37" fill="none" xmlns="http://www.w3.org/2000/svg">
<g clip-path="url(#clip0_283_237)">
<path d="M15.1015 1.01322C14.6796 0.570256 14.0468 0.401506 13.4562 0.556193C12.8656 0.710881 12.4085 1.18197 12.2538 1.7726L11.1429 6.16713L6.78354 4.93666C6.19291 4.76791 5.5601 4.93666 5.13119 5.36557C4.70229 5.79447 4.53354 6.42729 4.70229 7.01791L5.93276 11.3773L1.53822 12.4953C0.947599 12.6429 0.483537 13.107 0.321818 13.6976C0.160099 14.2882 0.335881 14.914 0.778849 15.3359L4.02729 18.4999L0.778849 21.664C0.335881 22.0859 0.167131 22.7187 0.321818 23.3093C0.476506 23.8999 0.947599 24.357 1.53822 24.5117L5.93276 25.6226L4.70229 29.982C4.53354 30.5726 4.70229 31.2054 5.13119 31.6343C5.5601 32.0632 6.19291 32.232 6.78354 32.0632L11.1429 30.8328L12.2538 35.2273C12.4015 35.8179 12.8656 36.282 13.4562 36.4437C14.0468 36.6054 14.6726 36.4296 15.1015 35.9937L18.2656 32.7453L21.4296 35.9937C21.8585 36.4296 22.4843 36.6054 23.0749 36.4437C23.6656 36.282 24.1226 35.8179 24.2773 35.2273L25.3882 30.8328L29.7476 32.0632C30.3382 32.232 30.971 32.0632 31.3999 31.6343C31.8288 31.2054 31.9976 30.5726 31.8288 29.982L30.5984 25.6226L34.9929 24.5117C35.5835 24.364 36.0476 23.8999 36.2093 23.3093C36.371 22.7187 36.1953 22.0929 35.7593 21.664L32.5109 18.4999L35.7593 15.3359C36.1953 14.907 36.371 14.2812 36.2093 13.6906C36.0476 13.0999 35.5835 12.6429 34.9929 12.4882L30.5984 11.3773L31.8288 7.01791C31.9976 6.42729 31.8288 5.79447 31.3999 5.36557C30.971 4.93666 30.3382 4.76791 29.7476 4.93666L25.3882 6.16713L24.2703 1.7726C24.1226 1.18197 23.6585 0.717912 23.0679 0.556193C22.4773 0.394474 21.8515 0.570256 21.4296 1.01322L18.2656 4.26166L15.1015 1.01322Z" fill="#FACC15"/>
</g>
<defs>
<clipPath id="clip0_283_237">
<path d="M0.265625 0.5H36.2656V36.5H0.265625V0.5Z" fill="white"/>
</clipPath>
</defs>
</svg>
