<svg width="37" height="51" viewBox="0 0 37 51" fill="none" xmlns="http://www.w3.org/2000/svg">
<path d="M36.3281 51H0.328125V0H36.3281V51Z" stroke="#E5E7EB"/>
<g clip-path="url(#clip0_283_229)">
<path d="M13.7227 11.3375L16.1695 15.5H16.0781H11.0156C9.46172 15.5 8.20312 14.2414 8.20312 12.6875C8.20312 11.1336 9.46172 9.875 11.0156 9.875H11.1703C12.218 9.875 13.1953 10.4305 13.7227 11.3375ZM4.82812 12.6875C4.82812 13.7 5.07422 14.6562 5.50312 15.5H2.57812C1.33359 15.5 0.328125 16.5055 0.328125 17.75V22.25C0.328125 23.4945 1.33359 24.5 2.57812 24.5H34.0781C35.3227 24.5 36.3281 23.4945 36.3281 22.25V17.75C36.3281 16.5055 35.3227 15.5 34.0781 15.5H31.1531C31.582 14.6562 31.8281 13.7 31.8281 12.6875C31.8281 9.27031 29.0578 6.5 25.6406 6.5H25.4859C23.243 6.5 21.1617 7.68828 20.0227 9.62188L18.3281 12.5117L16.6336 9.62891C15.4945 7.68828 13.4133 6.5 11.1703 6.5H11.0156C7.59844 6.5 4.82812 9.27031 4.82812 12.6875ZM28.4531 12.6875C28.4531 14.2414 27.1945 15.5 25.6406 15.5H20.5781H20.4867L22.9336 11.3375C23.468 10.4305 24.4383 9.875 25.4859 9.875H25.6406C27.1945 9.875 28.4531 11.1336 28.4531 12.6875ZM2.57812 26.75V39.125C2.57812 40.9883 4.08984 42.5 5.95312 42.5H16.0781V26.75H2.57812ZM20.5781 42.5H30.7031C32.5664 42.5 34.0781 40.9883 34.0781 39.125V26.75H20.5781V42.5Z" fill="#FACC15"/>
</g>
<defs>
<clipPath id="clip0_283_229">
<path d="M0.328125 6.5H36.3281V42.5H0.328125V6.5Z" fill="white"/>
</clipPath>
</defs>
</svg>
