<svg width="37" height="37" viewBox="0 0 37 37" fill="none" xmlns="http://www.w3.org/2000/svg">
<g clip-path="url(#clip0_283_230)">
<path d="M13.7227 5.3375L16.1695 9.5H16.0781H11.0156C9.46172 9.5 8.20312 8.24141 8.20312 6.6875C8.20312 5.13359 9.46172 3.875 11.0156 3.875H11.1703C12.218 3.875 13.1953 4.43047 13.7227 5.3375ZM4.82812 6.6875C4.82812 7.7 5.07422 8.65625 5.50312 9.5H2.57812C1.33359 9.5 0.328125 10.5055 0.328125 11.75V16.25C0.328125 17.4945 1.33359 18.5 2.57812 18.5H34.0781C35.3227 18.5 36.3281 17.4945 36.3281 16.25V11.75C36.3281 10.5055 35.3227 9.5 34.0781 9.5H31.1531C31.582 8.65625 31.8281 7.7 31.8281 6.6875C31.8281 3.27031 29.0578 0.5 25.6406 0.5H25.4859C23.243 0.5 21.1617 1.68828 20.0227 3.62188L18.3281 6.51172L16.6336 3.62891C15.4945 1.68828 13.4133 0.5 11.1703 0.5H11.0156C7.59844 0.5 4.82812 3.27031 4.82812 6.6875ZM28.4531 6.6875C28.4531 8.24141 27.1945 9.5 25.6406 9.5H20.5781H20.4867L22.9336 5.3375C23.468 4.43047 24.4383 3.875 25.4859 3.875H25.6406C27.1945 3.875 28.4531 5.13359 28.4531 6.6875ZM2.57812 20.75V33.125C2.57812 34.9883 4.08984 36.5 5.95312 36.5H16.0781V20.75H2.57812ZM20.5781 36.5H30.7031C32.5664 36.5 34.0781 34.9883 34.0781 33.125V20.75H20.5781V36.5Z" fill="#FACC15"/>
</g>
<defs>
<clipPath id="clip0_283_230">
<path d="M0.328125 0.5H36.3281V36.5H0.328125V0.5Z" fill="white"/>
</clipPath>
</defs>
</svg>
