<svg width="43" height="37" viewBox="0 0 43 37" fill="none" xmlns="http://www.w3.org/2000/svg">
<mask id="mask0_316_79" style="mask-type:luminance" maskUnits="userSpaceOnUse" x="1" y="0" width="41" height="37">
<path d="M1.17188 0.5H41.6719V36.5H1.17188V0.5Z" fill="white"/>
</mask>
<g mask="url(#mask0_316_79)">
<path d="M29.2969 0.5H13.5469C11.6836 0.5 10.1648 2.03281 10.2352 3.88906C10.2492 4.26172 10.2633 4.63438 10.2844 5H2.85938C1.92422 5 1.17188 5.75234 1.17188 6.6875C1.17188 13.1984 3.52734 17.7266 6.69141 20.7992C9.80625 23.8297 13.6031 25.3555 16.4016 26.1289C18.0469 26.5859 19.1719 27.957 19.1719 29.3352C19.1719 30.8047 17.9766 32 16.507 32H14.6719C13.4273 32 12.4219 33.0055 12.4219 34.25C12.4219 35.4945 13.4273 36.5 14.6719 36.5H28.1719C29.4164 36.5 30.4219 35.4945 30.4219 34.25C30.4219 33.0055 29.4164 32 28.1719 32H26.3367C24.8672 32 23.6719 30.8047 23.6719 29.3352C23.6719 27.957 24.7898 26.5789 26.4422 26.1289C29.2477 25.3555 33.0445 23.8297 36.1594 20.7992C39.3164 17.7266 41.6719 13.1984 41.6719 6.6875C41.6719 5.75234 40.9195 5 39.9844 5H32.5594C32.5805 4.63438 32.5945 4.26875 32.6086 3.88906C32.6789 2.03281 31.1602 0.5 29.2969 0.5ZM4.61016 8.375H10.5445C11.1844 14.7102 12.5977 18.943 14.1937 21.7766C12.443 21.0031 10.6219 19.9133 9.04688 18.3805C6.79688 16.1938 4.96875 13.0367 4.61719 8.375H4.61016ZM33.8039 18.3805C32.2289 19.9133 30.4078 21.0031 28.657 21.7766C30.2531 18.943 31.6664 14.7102 32.3062 8.375H38.2406C37.882 13.0367 36.0539 16.1938 33.8109 18.3805H33.8039Z" fill="#FACC15"/>
</g>
</svg>
