<svg width="23" height="28" viewBox="0 0 23 28" fill="none" xmlns="http://www.w3.org/2000/svg">
<path d="M22.5 28H0V0H22.5V28Z" stroke="#E5E7EB"/>
<g clip-path="url(#clip0_283_142)">
<path d="M15.625 3.5H6.875C5.83984 3.5 4.99609 4.35156 5.03516 5.38281C5.04297 5.58984 5.05078 5.79688 5.0625 6H0.9375C0.417969 6 0 6.41797 0 6.9375C0 10.5547 1.30859 13.0703 3.06641 14.7773C4.79687 16.4609 6.90625 17.3086 8.46094 17.7383C9.375 17.9922 10 18.7539 10 19.5195C10 20.3359 9.33594 21 8.51953 21H7.5C6.80859 21 6.25 21.5586 6.25 22.25C6.25 22.9414 6.80859 23.5 7.5 23.5H15C15.6914 23.5 16.25 22.9414 16.25 22.25C16.25 21.5586 15.6914 21 15 21H13.9805C13.1641 21 12.5 20.3359 12.5 19.5195C12.5 18.7539 13.1211 17.9883 14.0391 17.7383C15.5977 17.3086 17.707 16.4609 19.4375 14.7773C21.1914 13.0703 22.5 10.5547 22.5 6.9375C22.5 6.41797 22.082 6 21.5625 6H17.4375C17.4492 5.79688 17.457 5.59375 17.4648 5.38281C17.5039 4.35156 16.6602 3.5 15.625 3.5ZM1.91016 7.875H5.20703C5.5625 11.3945 6.34766 13.7461 7.23437 15.3203C6.26172 14.8906 5.25 14.2852 4.375 13.4336C3.125 12.2188 2.10938 10.4648 1.91406 7.875H1.91016ZM18.1289 13.4336C17.2539 14.2852 16.2422 14.8906 15.2695 15.3203C16.1562 13.7461 16.9414 11.3945 17.2969 7.875H20.5938C20.3945 10.4648 19.3789 12.2188 18.1328 13.4336H18.1289Z" fill="#EAB308"/>
</g>
<defs>
<clipPath id="clip0_283_142">
<path d="M0 3.5H22.5V23.5H0V3.5Z" fill="white"/>
</clipPath>
</defs>
</svg>
