<svg width="25" height="25" viewBox="0 0 25 25" fill="none" xmlns="http://www.w3.org/2000/svg">
<g clip-path="url(#clip0_316_85)">
<path d="M12.5 0.875C19.1274 0.875 24.5 6.24758 24.5 12.875C24.5 19.5024 19.1274 24.875 12.5 24.875C5.87258 24.875 0.5 19.5024 0.5 12.875C0.5 6.24758 5.87258 0.875 12.5 0.875Z" fill="#FACC15"/>
<mask id="mask0_316_85" style="mask-type:luminance" maskUnits="userSpaceOnUse" x="6" y="5" width="13" height="15">
<path d="M6.375 5.625H18.625V19.625H6.375V5.625Z" fill="white"/>
</mask>
<g mask="url(#mask0_316_85)">
<path d="M18.3681 8.50732C18.7099 8.84912 18.7099 9.4042 18.3681 9.746L11.3681 16.746C11.0263 17.0878 10.4712 17.0878 10.1294 16.746L6.62939 13.246C6.2876 12.9042 6.2876 12.3491 6.62939 12.0073C6.97119 11.6655 7.52627 11.6655 7.86807 12.0073L10.7501 14.8866L17.1321 8.50732C17.4739 8.16553 18.029 8.16553 18.3708 8.50732H18.3681Z" fill="#111827"/>
</g>
</g>
<defs>
<clipPath id="clip0_316_85">
<rect width="24" height="25" fill="white" transform="translate(0.5)"/>
</clipPath>
</defs>
</svg>
