<svg width="21" height="32" viewBox="0 0 21 32" fill="none" xmlns="http://www.w3.org/2000/svg">
<path d="M21 32H0V0H21V32Z" stroke="#E5E7EB"/>
<g clip-path="url(#clip0_283_344)">
<path d="M13.5 3H7.5H6C5.17031 3 4.5 3.67031 4.5 4.5C4.5 5.32969 5.17031 6 6 6V12.225C6 12.7781 5.84531 13.3266 5.55469 13.7953L0.482813 22.0406C0.16875 22.5563 0 23.1422 0 23.7469C0 25.5422 1.45781 27 3.25313 27H17.7469C19.5422 27 21 25.5422 21 23.7469C21 23.1469 20.8313 22.5563 20.5172 22.0406L15.4453 13.8C15.1547 13.3266 15 12.7828 15 12.2297V6C15.8297 6 16.5 5.32969 16.5 4.5C16.5 3.67031 15.8297 3 15 3H13.5ZM9 12.225V6H12V12.225C12 13.3359 12.3094 14.4234 12.8906 15.3703L14.5078 18H6.49219L8.10938 15.3703C8.69063 14.4234 9 13.3359 9 12.225Z" fill="#1E3A8A"/>
</g>
<defs>
<clipPath id="clip0_283_344">
<path d="M0 3H21V27H0V3Z" fill="white"/>
</clipPath>
</defs>
</svg>
