<svg width="21" height="24" viewBox="0 0 21 24" fill="none" xmlns="http://www.w3.org/2000/svg">
<g clip-path="url(#clip0_283_346)">
<path d="M13.5 0H7.5H6C5.17031 0 4.5 0.670312 4.5 1.5C4.5 2.32969 5.17031 3 6 3V9.225C6 9.77812 5.84531 10.3266 5.55469 10.7953L0.482813 19.0406C0.16875 19.5563 0 20.1422 0 20.7469C0 22.5422 1.45781 24 3.25313 24H17.7469C19.5422 24 21 22.5422 21 20.7469C21 20.1469 20.8313 19.5563 20.5172 19.0406L15.4453 10.8C15.1547 10.3266 15 9.78281 15 9.22969V3C15.8297 3 16.5 2.32969 16.5 1.5C16.5 0.670312 15.8297 0 15 0H13.5ZM9 9.225V3H12V9.225C12 10.3359 12.3094 11.4234 12.8906 12.3703L14.5078 15H6.49219L8.10938 12.3703C8.69063 11.4234 9 10.3359 9 9.225Z" fill="#1E3A8A"/>
</g>
<defs>
<clipPath id="clip0_283_346">
<rect width="21" height="24" fill="white"/>
</clipPath>
</defs>
</svg>
