<svg width="66" height="64" viewBox="0 0 66 64" fill="none" xmlns="http://www.w3.org/2000/svg">
<g clip-path="url(#clip0_316_47)">
<path d="M33.4844 0C51.1575 0 65.4844 14.3269 65.4844 32C65.4844 49.6731 51.1575 64 33.4844 64C15.8113 64 1.48438 49.6731 1.48438 32C1.48438 14.3269 15.8113 0 33.4844 0Z" fill="#0055A6"/>
<mask id="mask0_316_47" style="mask-type:luminance" maskUnits="userSpaceOnUse" x="23" y="21" width="21" height="21">
<path d="M23.4844 21.5H43.4844V41.5H23.4844V21.5Z" fill="white"/>
</mask>
<g mask="url(#mask0_316_47)">
<path d="M29.9258 22.4608C29.625 21.7343 28.832 21.3476 28.0742 21.5546L24.6367 22.4921C23.957 22.6796 23.4844 23.2968 23.4844 23.9999C23.4844 33.664 31.3203 41.4999 40.9844 41.4999C41.6875 41.4999 42.3047 41.0272 42.4922 40.3476L43.4297 36.9101C43.6367 36.1522 43.25 35.3593 42.5234 35.0585L38.7734 33.496C38.1367 33.2304 37.3984 33.414 36.9648 33.9491L35.3867 35.8749C32.6367 34.5741 30.4102 32.3476 29.1094 29.5976L31.0352 28.0233C31.5703 27.5858 31.7539 26.8515 31.4883 26.2147L29.9258 22.4647V22.4608Z" fill="white"/>
</g>
</g>
<defs>
<clipPath id="clip0_316_47">
<rect width="65" height="64" fill="white" transform="translate(0.5)"/>
</clipPath>
</defs>
</svg>
