<svg width="20" height="21" viewBox="0 0 20 21" fill="none" xmlns="http://www.w3.org/2000/svg">
<g clip-path="url(#clip0_68_410)">
<path d="M19.6875 10.25C19.6875 4.89844 15.3516 0.5625 10 0.5625C4.64844 0.5625 0.3125 4.89844 0.3125 10.25C0.3125 15.0852 3.85508 19.093 8.48633 19.8203V13.0504H6.02539V10.25H8.48633V8.11562C8.48633 5.68789 9.93164 4.34687 12.1453 4.34687C13.2055 4.34687 14.3141 4.53594 14.3141 4.53594V6.91875H13.0922C11.8891 6.91875 11.5137 7.66562 11.5137 8.43164V10.25H14.2004L13.7707 13.0504H11.5137V19.8203C16.1449 19.093 19.6875 15.0852 19.6875 10.25Z" fill="white"/>
</g>
<defs>
<clipPath id="clip0_68_410">
<path d="M0 0.25H20V20.25H0V0.25Z" fill="white"/>
</clipPath>
</defs>
</svg>
