<svg width="18" height="21" viewBox="0 0 18 21" fill="none" xmlns="http://www.w3.org/2000/svg">
<g clip-path="url(#clip0_68_418)">
<path d="M8.75391 5.75781C6.26953 5.75781 4.26562 7.76172 4.26562 10.2461C4.26562 12.7305 6.26953 14.7344 8.75391 14.7344C11.2383 14.7344 13.2422 12.7305 13.2422 10.2461C13.2422 7.76172 11.2383 5.75781 8.75391 5.75781ZM8.75391 13.1641C7.14844 13.1641 5.83594 11.8555 5.83594 10.2461C5.83594 8.63672 7.14453 7.32812 8.75391 7.32812C10.3633 7.32812 11.6719 8.63672 11.6719 10.2461C11.6719 11.8555 10.3594 13.1641 8.75391 13.1641ZM14.4727 5.57422C14.4727 6.15625 14.0039 6.62109 13.4258 6.62109C12.8438 6.62109 12.3789 6.15234 12.3789 5.57422C12.3789 4.99609 12.8477 4.52734 13.4258 4.52734C14.0039 4.52734 14.4727 4.99609 14.4727 5.57422ZM17.4453 6.63672C17.3789 5.23438 17.0586 3.99219 16.0312 2.96875C15.0078 1.94531 13.7656 1.625 12.3633 1.55469C10.918 1.47266 6.58594 1.47266 5.14062 1.55469C3.74219 1.62109 2.5 1.94141 1.47266 2.96484C0.445313 3.98828 0.128906 5.23047 0.0585937 6.63281C-0.0234375 8.07812 -0.0234375 12.4102 0.0585937 13.8555C0.125 15.2578 0.445313 16.5 1.47266 17.5234C2.5 18.5469 3.73828 18.8672 5.14062 18.9375C6.58594 19.0195 10.918 19.0195 12.3633 18.9375C13.7656 18.8711 15.0078 18.5508 16.0312 17.5234C17.0547 16.5 17.375 15.2578 17.4453 13.8555C17.5273 12.4102 17.5273 8.08203 17.4453 6.63672ZM15.5781 15.4062C15.2734 16.1719 14.6836 16.7617 13.9141 17.0703C12.7617 17.5273 10.0273 17.4219 8.75391 17.4219C7.48047 17.4219 4.74219 17.5234 3.59375 17.0703C2.82812 16.7656 2.23828 16.1758 1.92969 15.4062C1.47266 14.2539 1.57813 11.5195 1.57813 10.2461C1.57813 8.97266 1.47656 6.23438 1.92969 5.08594C2.23438 4.32031 2.82422 3.73047 3.59375 3.42187C4.74609 2.96484 7.48047 3.07031 8.75391 3.07031C10.0273 3.07031 12.7656 2.96875 13.9141 3.42187C14.6797 3.72656 15.2695 4.31641 15.5781 5.08594C16.0352 6.23828 15.9297 8.97266 15.9297 10.2461C15.9297 11.5195 16.0352 14.2578 15.5781 15.4062Z" fill="white"/>
</g>
<defs>
<clipPath id="clip0_68_418">
<path d="M0 0.25H17.5V20.25H0V0.25Z" fill="white"/>
</clipPath>
</defs>
</svg>
