<svg width="20" height="21" viewBox="0 0 20 21" fill="none" xmlns="http://www.w3.org/2000/svg">
<path d="M20 20.25H0V0.25H20V20.25Z" />
<path d="M17.9441 6.17662C17.9568 6.35428 17.9568 6.53197 17.9568 6.70963C17.9568 12.1284 13.8325 18.3721 6.29441 18.3721C3.97207 18.3721 1.81473 17.6994 0 16.532C0.329961 16.57 0.647187 16.5827 0.989844 16.5827C2.90605 16.5827 4.67004 15.9355 6.07867 14.8315C4.27664 14.7934 2.76648 13.6132 2.24617 11.9888C2.5 12.0269 2.75379 12.0522 3.02031 12.0522C3.38832 12.0522 3.75637 12.0015 4.09898 11.9127C2.22082 11.5319 0.812148 9.88221 0.812148 7.88982V7.83908C1.35781 8.14365 1.99238 8.334 2.66492 8.35935C1.56086 7.6233 0.837539 6.36697 0.837539 4.94564C0.837539 4.18424 1.04055 3.48627 1.3959 2.87713C3.41367 5.36443 6.44668 6.98877 9.84766 7.16646C9.78422 6.86189 9.74613 6.54467 9.74613 6.2274C9.74613 3.9685 11.5736 2.12842 13.8451 2.12842C15.0253 2.12842 16.0913 2.62334 16.84 3.42283C17.7664 3.24518 18.6547 2.90252 19.4416 2.43299C19.137 3.38479 18.4898 4.18428 17.6395 4.69186C18.4644 4.60307 19.2639 4.37459 19.9999 4.05736C19.4416 4.86951 18.7436 5.59283 17.9441 6.17662Z" fill="white"/>
</svg>
