<svg width="23" height="21" viewBox="0 0 23 21" fill="none" xmlns="http://www.w3.org/2000/svg">
<path d="M23 20.25H0.5V0.25H23V20.25Z" />
<path d="M21.9708 5.09699C21.7255 4.17316 21.0026 3.44559 20.0847 3.19867C18.4211 2.75 11.7499 2.75 11.7499 2.75C11.7499 2.75 5.07884 2.75 3.41513 3.19867C2.49728 3.44563 1.77438 4.17316 1.52903 5.09699C1.08325 6.77148 1.08325 10.2652 1.08325 10.2652C1.08325 10.2652 1.08325 13.7588 1.52903 15.4333C1.77438 16.3571 2.49728 17.0544 3.41513 17.3013C5.07884 17.75 11.7499 17.75 11.7499 17.75C11.7499 17.75 18.421 17.75 20.0847 17.3013C21.0026 17.0544 21.7255 16.3571 21.9708 15.4333C22.4166 13.7588 22.4166 10.2652 22.4166 10.2652C22.4166 10.2652 22.4166 6.77148 21.9708 5.09699ZM9.5681 13.4371V7.09316L15.1438 10.2652L9.5681 13.4371Z" fill="white"/>
</svg>
