<svg width="65" height="64" viewBox="0 0 65 64" fill="none" xmlns="http://www.w3.org/2000/svg">
<g clip-path="url(#clip0_316_2)">
<path d="M32.5 0C50.1731 0 64.5 14.3269 64.5 32C64.5 49.6731 50.1731 64 32.5 64C14.8269 64 0.5 49.6731 0.5 32C0.5 14.3269 14.8269 0 32.5 0Z" fill="#0055A6"/>
<mask id="mask0_316_2" style="mask-type:luminance" maskUnits="userSpaceOnUse" x="25" y="19" width="15" height="24">
<path d="M25 19H40V43H25V19Z" fill="white"/>
</mask>
<g mask="url(#mask0_316_2)">
<path d="M29.5012 22C29.5012 21.2044 29.8173 20.4413 30.3799 19.8787C30.9425 19.3161 31.7056 19 32.5012 19C33.2969 19 34.0599 19.3161 34.6225 19.8787C35.1851 20.4413 35.5012 21.2044 35.5012 22C35.5012 22.7956 35.1851 23.5587 34.6225 24.1213C34.0599 24.6839 33.2969 25 32.5012 25C31.7056 25 30.9425 24.6839 30.3799 24.1213C29.8173 23.5587 29.5012 22.7956 29.5012 22ZM31.7512 37V41.5C31.7512 42.3297 31.0809 43 30.2512 43C29.4215 43 28.7512 42.3297 28.7512 41.5V32.4906L27.7715 34.0469C27.3309 34.75 26.4028 34.9562 25.7043 34.5156C25.0059 34.075 24.7903 33.1516 25.2309 32.4531L27.1012 29.4859C28.2684 27.625 30.3075 26.5 32.5012 26.5C34.695 26.5 36.734 27.625 37.9012 29.4813L39.7715 32.4531C40.2122 33.1562 40.0012 34.0797 39.3028 34.5203C38.6043 34.9609 37.6762 34.75 37.2356 34.0516L36.2512 32.4906V41.5C36.2512 42.3297 35.5809 43 34.7512 43C33.9215 43 33.2512 42.3297 33.2512 41.5V37H31.7512Z" fill="white"/>
</g>
</g>
<defs>
<clipPath id="clip0_316_2">
<rect width="64" height="64" fill="white" transform="translate(0.5)"/>
</clipPath>
</defs>
</svg>
