<svg width="64" height="64" viewBox="0 0 64 64" fill="none" xmlns="http://www.w3.org/2000/svg">
<path d="M32 0C49.6731 0 64 14.3269 64 32C64 49.6731 49.6731 64 32 64C14.3269 64 0 49.6731 0 32C0 14.3269 14.3269 0 32 0Z" fill="#0055A6"/>
<path d="M32 0C49.6731 0 64 14.3269 64 32C64 49.6731 49.6731 64 32 64C14.3269 64 0 49.6731 0 32C0 14.3269 14.3269 0 32 0Z" stroke="#E5E7EB"/>
<path d="M39.5 48H24.5V16H39.5V48Z" stroke="#E5E7EB"/>
<g clip-path="url(#clip0_283_57)">
<path d="M29.0002 22C29.0002 21.2044 29.3163 20.4413 29.8789 19.8787C30.4415 19.3161 31.2046 19 32.0002 19C32.7959 19 33.5589 19.3161 34.1215 19.8787C34.6841 20.4413 35.0002 21.2044 35.0002 22C35.0002 22.7956 34.6841 23.5587 34.1215 24.1213C33.5589 24.6839 32.7959 25 32.0002 25C31.2046 25 30.4415 24.6839 29.8789 24.1213C29.3163 23.5587 29.0002 22.7956 29.0002 22ZM31.2502 37V41.5C31.2502 42.3297 30.5799 43 29.7502 43C28.9205 43 28.2502 42.3297 28.2502 41.5V32.4906L27.2705 34.0469C26.8299 34.75 25.9018 34.9562 25.2033 34.5156C24.5049 34.075 24.2893 33.1516 24.7299 32.4531L26.6002 29.4859C27.7674 27.625 29.8065 26.5 32.0002 26.5C34.194 26.5 36.233 27.625 37.4002 29.4813L39.2705 32.4531C39.7112 33.1562 39.5002 34.0797 38.8018 34.5203C38.1033 34.9609 37.1752 34.75 36.7346 34.0516L35.7502 32.4906V41.5C35.7502 42.3297 35.0799 43 34.2502 43C33.4205 43 32.7502 42.3297 32.7502 41.5V37H31.2502Z" fill="white"/>
</g>
<defs>
<clipPath id="clip0_283_57">
<path d="M24.5 19H39.5V43H24.5V19Z" fill="white"/>
</clipPath>
</defs>
</svg>
