<svg width="65" height="64" viewBox="0 0 65 64" fill="none" xmlns="http://www.w3.org/2000/svg">
<g clip-path="url(#clip0_316_11)">
<path d="M32.5 0C50.1731 0 64.5 14.3269 64.5 32C64.5 49.6731 50.1731 64 32.5 64C14.8269 64 0.5 49.6731 0.5 32C0.5 14.3269 14.8269 0 32.5 0Z" fill="#0055A6"/>
<mask id="mask0_316_11" style="mask-type:luminance" maskUnits="userSpaceOnUse" x="22" y="19" width="21" height="24">
<path d="M22 19H43V43H22V19Z" fill="white"/>
</mask>
<g mask="url(#mask0_316_11)">
<path d="M32.2798 19.023C32.4251 18.9949 32.5751 18.9949 32.7204 19.023L42.0954 20.898C42.6204 21.0012 43.0001 21.4652 43.0001 21.9996C43.0001 22.534 42.6204 22.998 42.0954 23.1012L38.5001 23.823V26.4996C38.5001 29.8137 35.8142 32.4996 32.5001 32.4996C29.1861 32.4996 26.5001 29.8137 26.5001 26.4996V23.823L24.2501 23.373V26.4246L24.9861 30.0996C25.0283 30.3199 24.972 30.5496 24.8314 30.723C24.6908 30.8965 24.4751 30.9996 24.2501 30.9996H22.7501C22.5251 30.9996 22.3142 30.9012 22.1689 30.723C22.0236 30.5449 21.9673 30.3199 22.0142 30.0996L22.7501 26.4246V23.059C22.3048 22.9043 22.0001 22.4824 22.0001 21.9996C22.0001 21.4652 22.3798 21.0012 22.9048 20.898L32.2798 19.023ZM27.2454 34.3605C27.7376 34.2012 28.2673 34.3793 28.6236 34.759L31.9517 38.298C32.247 38.6121 32.7486 38.6121 33.0439 38.298L36.372 34.759C36.7283 34.3793 37.2579 34.2012 37.7501 34.3605C40.797 35.3402 43.0001 38.1902 43.0001 41.5605C43.0001 42.3574 42.3533 42.9996 41.5611 42.9996H23.4392C22.647 42.9996 22.0001 42.3527 22.0001 41.5605C22.0001 38.1902 24.2033 35.3402 27.2454 34.3605Z" fill="white"/>
</g>
</g>
<defs>
<clipPath id="clip0_316_11">
<rect width="64" height="64" fill="white" transform="translate(0.5)"/>
</clipPath>
</defs>
</svg>
