<svg width="64" height="64" viewBox="0 0 64 64" fill="none" xmlns="http://www.w3.org/2000/svg">
<path d="M32 0C49.6731 0 64 14.3269 64 32C64 49.6731 49.6731 64 32 64C14.3269 64 0 49.6731 0 32C0 14.3269 14.3269 0 32 0Z" fill="#0055A6"/>
<path d="M32 0C49.6731 0 64 14.3269 64 32C64 49.6731 49.6731 64 32 64C14.3269 64 0 49.6731 0 32C0 14.3269 14.3269 0 32 0Z" stroke="#E5E7EB"/>
<path d="M42.5 48H21.5V16H42.5V48Z" stroke="#E5E7EB"/>
<g clip-path="url(#clip0_283_66)">
<path d="M31.7798 19.023C31.9251 18.9949 32.0751 18.9949 32.2204 19.023L41.5954 20.898C42.1204 21.0012 42.5001 21.4652 42.5001 21.9996C42.5001 22.534 42.1204 22.998 41.5954 23.1012L38.0001 23.823V26.4996C38.0001 29.8137 35.3142 32.4996 32.0001 32.4996C28.6861 32.4996 26.0001 29.8137 26.0001 26.4996V23.823L23.7501 23.373V26.4246L24.4861 30.0996C24.5283 30.3199 24.472 30.5496 24.3314 30.723C24.1908 30.8965 23.9751 30.9996 23.7501 30.9996H22.2501C22.0251 30.9996 21.8142 30.9012 21.6689 30.723C21.5236 30.5449 21.4673 30.3199 21.5142 30.0996L22.2501 26.4246V23.059C21.8048 22.9043 21.5001 22.4824 21.5001 21.9996C21.5001 21.4652 21.8798 21.0012 22.4048 20.898L31.7798 19.023ZM26.7454 34.3605C27.2376 34.2012 27.7673 34.3793 28.1236 34.759L31.4517 38.298C31.747 38.6121 32.2486 38.6121 32.5439 38.298L35.872 34.759C36.2283 34.3793 36.7579 34.2012 37.2501 34.3605C40.297 35.3402 42.5001 38.1902 42.5001 41.5605C42.5001 42.3574 41.8533 42.9996 41.0611 42.9996H22.9392C22.147 42.9996 21.5001 42.3527 21.5001 41.5605C21.5001 38.1902 23.7033 35.3402 26.7454 34.3605Z" fill="white"/>
</g>
<defs>
<clipPath id="clip0_283_66">
<path d="M21.5 19H42.5V43H21.5V19Z" fill="white"/>
</clipPath>
</defs>
</svg>
