<svg width="80" height="80" viewBox="0 0 80 80" fill="none" xmlns="http://www.w3.org/2000/svg">
<path d="M40 0C62.0914 0 80 17.9086 80 40C80 62.0914 62.0914 80 40 80C17.9086 80 0 62.0914 0 40C0 17.9086 17.9086 0 40 0Z" fill="#0055A6"/>
<path d="M40 0C62.0914 0 80 17.9086 80 40C80 62.0914 62.0914 80 40 80C17.9086 80 0 62.0914 0 40C0 17.9086 17.9086 0 40 0Z" stroke="#E5E7EB"/>
<path d="M49 56H31V24H49V56Z" stroke="#E5E7EB"/>
<g clip-path="url(#clip0_283_83)">
<path d="M43.75 45C44.2 43.5047 45.1328 42.2297 46.0563 40.9594C46.3 40.6266 46.5438 40.2937 46.7781 39.9562C47.7063 38.6203 48.25 37.0031 48.25 35.2547C48.25 30.6938 44.5562 27 40 27C35.4438 27 31.75 30.6938 31.75 35.25C31.75 36.9984 32.2938 38.6203 33.2219 39.9516C33.4563 40.2891 33.7 40.6219 33.9437 40.9547C34.8719 42.225 35.8047 43.5047 36.25 44.9953H43.75V45ZM40 51C42.0719 51 43.75 49.3219 43.75 47.25V46.5H36.25V47.25C36.25 49.3219 37.9281 51 40 51ZM36.25 35.25C36.25 35.6625 35.9125 36 35.5 36C35.0875 36 34.75 35.6625 34.75 35.25C34.75 32.3484 37.0984 30 40 30C40.4125 30 40.75 30.3375 40.75 30.75C40.75 31.1625 40.4125 31.5 40 31.5C37.9281 31.5 36.25 33.1781 36.25 35.25Z" fill="white"/>
</g>
<defs>
<clipPath id="clip0_283_83">
<path d="M31 27H49V51H31V27Z" fill="white"/>
</clipPath>
</defs>
</svg>
