<svg width="81" height="80" viewBox="0 0 81 80" fill="none" xmlns="http://www.w3.org/2000/svg">
<g clip-path="url(#clip0_316_20)">
<path d="M40.5 0C62.5914 0 80.5 17.9086 80.5 40C80.5 62.0914 62.5914 80 40.5 80C18.4086 80 0.5 62.0914 0.5 40C0.5 17.9086 18.4086 0 40.5 0Z" fill="#0055A6"/>
<mask id="mask0_316_20" style="mask-type:luminance" maskUnits="userSpaceOnUse" x="31" y="27" width="19" height="24">
<path d="M31.5 27H49.5V51H31.5V27Z" fill="white"/>
</mask>
<g mask="url(#mask0_316_20)">
<path d="M44.25 45C44.7 43.5047 45.6328 42.2297 46.5563 40.9594C46.8 40.6266 47.0438 40.2937 47.2781 39.9562C48.2063 38.6203 48.75 37.0031 48.75 35.2547C48.75 30.6938 45.0562 27 40.5 27C35.9438 27 32.25 30.6938 32.25 35.25C32.25 36.9984 32.7938 38.6203 33.7219 39.9516C33.9563 40.2891 34.2 40.6219 34.4437 40.9547C35.3719 42.225 36.3047 43.5047 36.75 44.9953H44.25V45ZM40.5 51C42.5719 51 44.25 49.3219 44.25 47.25V46.5H36.75V47.25C36.75 49.3219 38.4281 51 40.5 51ZM36.75 35.25C36.75 35.6625 36.4125 36 36 36C35.5875 36 35.25 35.6625 35.25 35.25C35.25 32.3484 37.5984 30 40.5 30C40.9125 30 41.25 30.3375 41.25 30.75C41.25 31.1625 40.9125 31.5 40.5 31.5C38.4281 31.5 36.75 33.1781 36.75 35.25Z" fill="white"/>
</g>
</g>
<defs>
<clipPath id="clip0_316_20">
<rect width="80" height="80" fill="white" transform="translate(0.5)"/>
</clipPath>
</defs>
</svg>
