<svg width="81" height="80" viewBox="0 0 81 80" fill="none" xmlns="http://www.w3.org/2000/svg">
<g clip-path="url(#clip0_316_101)">
<path d="M40.5 0C62.5914 0 80.5 17.9086 80.5 40C80.5 62.0914 62.5914 80 40.5 80C18.4086 80 0.5 62.0914 0.5 40C0.5 17.9086 18.4086 0 40.5 0Z" fill="#0055A6"/>
<mask id="mask0_316_101" style="mask-type:luminance" maskUnits="userSpaceOnUse" x="25" y="27" width="31" height="24">
<path d="M25.5 27H55.5V51H25.5V27Z" fill="white"/>
</mask>
<g mask="url(#mask0_316_101)">
<path d="M39.961 33.3422C40.2938 33.0469 40.4251 32.5828 40.2516 32.1703C40.1438 31.9219 40.0266 31.6781 39.8954 31.4437L39.7501 31.1906C39.6094 30.9562 39.4547 30.7266 39.2907 30.5062C39.0235 30.15 38.5547 30.0328 38.1329 30.1734L36.811 30.6094C36.3094 30.1969 35.7329 29.8594 35.1141 29.6297L34.8282 28.2703C34.7391 27.8344 34.4016 27.4875 33.961 27.4359C33.6516 27.3938 33.3375 27.375 33.0188 27.375H32.986C32.6672 27.375 32.3532 27.3937 32.0438 27.4312C31.6032 27.4828 31.2657 27.8344 31.1766 28.2656L30.8907 29.6297C30.2672 29.8641 29.6954 30.1969 29.1938 30.6094L27.8672 30.1781C27.4454 30.0375 26.9766 30.1547 26.7094 30.5109C26.5454 30.7312 26.3907 30.9609 26.2454 31.1953L26.1047 31.4437C25.9735 31.6781 25.8563 31.9219 25.7485 32.175C25.5751 32.5828 25.7063 33.0469 26.0391 33.3469L27.0797 34.275C27.0282 34.5891 27.0001 34.9172 27.0001 35.25C27.0001 35.5828 27.0282 35.9109 27.0797 36.2297L26.0391 37.1578C25.7063 37.4531 25.5751 37.9172 25.7485 38.3297C25.8563 38.5781 25.9735 38.8219 26.1047 39.0609L26.2454 39.3047C26.386 39.5437 26.5407 39.7687 26.7094 39.9891C26.9766 40.3453 27.4454 40.4625 27.8672 40.3219L29.1891 39.8859C29.6907 40.2984 30.2672 40.6359 30.886 40.8656L31.1719 42.2297C31.261 42.6656 31.5985 43.0125 32.0391 43.0641C32.3532 43.1016 32.6719 43.1203 32.9954 43.1203C33.3188 43.1203 33.6375 43.1016 33.9516 43.0641C34.3922 43.0125 34.7297 42.6609 34.8188 42.2297L35.1047 40.8656C35.7282 40.6312 36.3001 40.2984 36.8016 39.8859L38.1235 40.3219C38.5454 40.4625 39.0141 40.3453 39.2813 39.9891C39.4454 39.7687 39.6 39.5437 39.7407 39.3047L39.886 39.0516C40.0172 38.8172 40.1344 38.5734 40.2422 38.325C40.4157 37.9172 40.2844 37.4531 39.9516 37.1531L38.911 36.225C38.9626 35.9062 38.9907 35.5781 38.9907 35.2453C38.9907 34.9125 38.9626 34.5844 38.911 34.2656L39.9516 33.3375L39.961 33.3422ZM30.7501 35.25C30.7501 34.6533 30.9871 34.081 31.4091 33.659C31.831 33.2371 32.4033 33 33 33C33.5968 33 34.1691 33.2371 34.591 33.659C35.013 34.081 35.25 34.6533 35.25 35.25C35.25 35.8467 35.013 36.419 34.591 36.841C34.1691 37.2629 33.5968 37.5 33 37.5C32.4033 37.5 31.831 37.2629 31.4091 36.841C30.9871 36.419 30.7501 35.8467 30.7501 35.25ZM49.1579 50.4609C49.4532 50.7937 49.9172 50.925 50.3297 50.7516C50.5782 50.6437 50.8219 50.5266 51.0563 50.3953L51.3094 50.25C51.5438 50.1094 51.7735 49.9547 51.9938 49.7906C52.3501 49.5234 52.4672 49.0547 52.3266 48.6328L51.8907 47.3109C52.3032 46.8094 52.6407 46.2328 52.8704 45.6141L54.2344 45.3281C54.6704 45.2391 55.0172 44.9016 55.0688 44.4609C55.1063 44.1469 55.1251 43.8281 55.1251 43.5047C55.1251 43.1812 55.1063 42.8625 55.0688 42.5484C55.0172 42.1078 54.6657 41.7703 54.2344 41.6812L52.8704 41.3906C52.636 40.7672 52.3032 40.1953 51.8907 39.6937L52.3266 38.3719C52.4672 37.95 52.3501 37.4812 51.9938 37.2141C51.7735 37.05 51.5438 36.8953 51.3094 36.75L51.061 36.6094C50.8266 36.4781 50.5829 36.3609 50.3297 36.2531C49.9219 36.0797 49.4579 36.2109 49.1579 36.5437L48.2297 37.5844C47.911 37.5328 47.5829 37.5047 47.2501 37.5047C46.9172 37.5047 46.5891 37.5328 46.2704 37.5844L45.3422 36.5437C45.0469 36.2109 44.5829 36.0797 44.1704 36.2531C43.9219 36.3609 43.6782 36.4781 43.4391 36.6094L43.1954 36.75C42.9563 36.8906 42.7313 37.0453 42.511 37.2141C42.1547 37.4812 42.0375 37.95 42.1782 38.3719L42.6141 39.6937C42.2016 40.1953 41.8641 40.7719 41.6344 41.3906L40.2704 41.6719C39.8344 41.7609 39.4875 42.0984 39.436 42.5391C39.3985 42.8531 39.3797 43.1719 39.3797 43.4953C39.3797 43.8187 39.3985 44.1375 39.436 44.4516C39.4875 44.8922 39.8391 45.2297 40.2704 45.3187L41.6344 45.6047C41.8688 46.2281 42.2016 46.8 42.6141 47.3016L42.1782 48.6234C42.0375 49.0453 42.1547 49.5141 42.511 49.7812C42.7313 49.9453 42.9563 50.1 43.1954 50.2406L43.4485 50.3859C43.6829 50.5172 43.9266 50.6344 44.1751 50.7422C44.5829 50.9156 45.0469 50.7844 45.3469 50.4516L46.2751 49.4109C46.5938 49.4625 46.9219 49.4906 47.2547 49.4906C47.5876 49.4906 47.9157 49.4625 48.2344 49.4109L49.1625 50.4516L49.1579 50.4609ZM47.2501 41.25C47.5455 41.25 47.8381 41.3082 48.1111 41.4213C48.3841 41.5343 48.6321 41.7001 48.841 41.909C49.05 42.1179 49.2157 42.366 49.3288 42.639C49.4419 42.9119 49.5001 43.2045 49.5001 43.5C49.5001 43.7955 49.4419 44.0881 49.3288 44.361C49.2157 44.634 49.05 44.8821 48.841 45.091C48.6321 45.2999 48.3841 45.4657 48.1111 45.5787C47.8381 45.6918 47.5455 45.75 47.2501 45.75C46.9546 45.75 46.662 45.6918 46.389 45.5787C46.116 45.4657 45.868 45.2999 45.6591 45.091C45.4501 44.8821 45.2844 44.634 45.1713 44.361C45.0582 44.0881 45.0001 43.7955 45.0001 43.5C45.0001 43.2045 45.0582 42.9119 45.1713 42.639C45.2844 42.366 45.4501 42.1179 45.6591 41.909C45.868 41.7001 46.116 41.5343 46.389 41.4213C46.662 41.3082 46.9546 41.25 47.2501 41.25Z" fill="white"/>
</g>
</g>
<defs>
<clipPath id="clip0_316_101">
<rect width="80" height="80" fill="white" transform="translate(0.5)"/>
</clipPath>
</defs>
</svg>
