<svg width="81" height="80" viewBox="0 0 81 80" fill="none" xmlns="http://www.w3.org/2000/svg">
<g clip-path="url(#clip0_316_29)">
<path d="M40.5 0C62.5914 0 80.5 17.9086 80.5 40C80.5 62.0914 62.5914 80 40.5 80C18.4086 80 0.5 62.0914 0.5 40C0.5 17.9086 18.4086 0 40.5 0Z" fill="#0055A6"/>
<mask id="mask0_316_29" style="mask-type:luminance" maskUnits="userSpaceOnUse" x="28" y="27" width="25" height="24">
<path d="M28.5 27H52.5V51H28.5V27Z" fill="white"/>
</mask>
<g mask="url(#mask0_316_29)">
<path d="M37.125 27C38.5734 27 39.75 28.1766 39.75 29.625V48.375C39.75 49.8234 38.5734 51 37.125 51C35.7703 51 34.6547 49.9734 34.5141 48.6516C34.2703 48.7172 34.0125 48.75 33.75 48.75C32.0953 48.75 30.75 47.4047 30.75 45.75C30.75 45.4031 30.8109 45.0656 30.9187 44.7562C29.5031 44.2219 28.5 42.8531 28.5 41.25C28.5 39.7547 29.3766 38.4609 30.6469 37.8609C30.2391 37.35 30 36.7031 30 36C30 34.5609 31.0125 33.3609 32.3625 33.0656C32.2875 32.8078 32.25 32.5312 32.25 32.25C32.25 30.8484 33.2156 29.6672 34.5141 29.3391C34.6547 28.0266 35.7703 27 37.125 27ZM43.875 27C45.2297 27 46.3406 28.0266 46.4859 29.3391C47.7891 29.6672 48.75 30.8438 48.75 32.25C48.75 32.5312 48.7125 32.8078 48.6375 33.0656C49.9875 33.3562 51 34.5609 51 36C51 36.7031 50.7609 37.35 50.3531 37.8609C51.6234 38.4609 52.5 39.7547 52.5 41.25C52.5 42.8531 51.4969 44.2219 50.0812 44.7562C50.1891 45.0656 50.25 45.4031 50.25 45.75C50.25 47.4047 48.9047 48.75 47.25 48.75C46.9875 48.75 46.7297 48.7172 46.4859 48.6516C46.3453 49.9734 45.2297 51 43.875 51C42.4266 51 41.25 49.8234 41.25 48.375V29.625C41.25 28.1766 42.4266 27 43.875 27Z" fill="white"/>
</g>
</g>
<defs>
<clipPath id="clip0_316_29">
<rect width="80" height="80" fill="white" transform="translate(0.5)"/>
</clipPath>
</defs>
</svg>
