<svg width="81" height="80" viewBox="0 0 81 80" fill="none" xmlns="http://www.w3.org/2000/svg">
<g clip-path="url(#clip0_316_56)">
<path d="M40.5 0C62.5914 0 80.5 17.9086 80.5 40C80.5 62.0914 62.5914 80 40.5 80C18.4086 80 0.5 62.0914 0.5 40C0.5 17.9086 18.4086 0 40.5 0Z" fill="#0055A6"/>
<mask id="mask0_316_56" style="mask-type:luminance" maskUnits="userSpaceOnUse" x="31" y="27" width="19" height="24">
<path d="M31.5 27H49.5V51H31.5V27Z" fill="white"/>
</mask>
<g mask="url(#mask0_316_56)">
<path d="M40.5 27C38.0156 27 36 29.0156 36 31.5V39C36 41.4844 38.0156 43.5 40.5 43.5C42.9844 43.5 45 41.4844 45 39V31.5C45 29.0156 42.9844 27 40.5 27ZM34.5 37.125C34.5 36.5016 33.9984 36 33.375 36C32.7516 36 32.25 36.5016 32.25 37.125V39C32.25 43.1766 35.3531 46.6266 39.375 47.175V48.75H37.125C36.5016 48.75 36 49.2516 36 49.875C36 50.4984 36.5016 51 37.125 51H40.5H43.875C44.4984 51 45 50.4984 45 49.875C45 49.2516 44.4984 48.75 43.875 48.75H41.625V47.175C45.6469 46.6266 48.75 43.1766 48.75 39V37.125C48.75 36.5016 48.2484 36 47.625 36C47.0016 36 46.5 36.5016 46.5 37.125V39C46.5 42.3141 43.8141 45 40.5 45C37.1859 45 34.5 42.3141 34.5 39V37.125Z" fill="white"/>
</g>
</g>
<defs>
<clipPath id="clip0_316_56">
<rect width="80" height="80" fill="white" transform="translate(0.5)"/>
</clipPath>
</defs>
</svg>
