<svg width="81" height="80" viewBox="0 0 81 80" fill="none" xmlns="http://www.w3.org/2000/svg">
<g clip-path="url(#clip0_316_38)">
<path d="M40.5 0C62.5914 0 80.5 17.9086 80.5 40C80.5 62.0914 62.5914 80 40.5 80C18.4086 80 0.5 62.0914 0.5 40C0.5 17.9086 18.4086 0 40.5 0Z" fill="#0055A6"/>
<mask id="mask0_316_38" style="mask-type:luminance" maskUnits="userSpaceOnUse" x="27" y="27" width="27" height="24">
<path d="M27 27H54V51H27V27Z" fill="white"/>
</mask>
<g mask="url(#mask0_316_38)">
<path d="M41.8558 27.8438C41.6074 27.3281 41.0824 27 40.5058 27C39.9292 27 39.4089 27.3281 39.1558 27.8438L36.1417 34.0453L29.4105 35.0391C28.848 35.1234 28.3792 35.5172 28.2058 36.0562C28.0324 36.5953 28.173 37.1906 28.5761 37.5891L33.4605 42.4219L32.3074 49.2516C32.2136 49.8141 32.448 50.3859 32.912 50.7188C33.3761 51.0516 33.9902 51.0937 34.4964 50.8266L40.5105 47.6156L46.5245 50.8266C47.0308 51.0937 47.6449 51.0562 48.1089 50.7188C48.573 50.3813 48.8074 49.8141 48.7136 49.2516L47.5558 42.4219L52.4402 37.5891C52.8433 37.1906 52.9886 36.5953 52.8105 36.0562C52.6324 35.5172 52.1683 35.1234 51.6058 35.0391L44.8699 34.0453L41.8558 27.8438Z" fill="white"/>
</g>
</g>
<defs>
<clipPath id="clip0_316_38">
<rect width="80" height="80" fill="white" transform="translate(0.5)"/>
</clipPath>
</defs>
</svg>
